<svg width="35" height="35" viewBox="0 0 35 35" fill="none" xmlns="http://www.w3.org/2000/svg">
<g id="Group">
<path id="Vector" d="M8.20312 17.5C8.20312 15.7659 8.68089 14.1415 9.51091 12.7506V6.85065H3.61095C1.2693 9.89182 0 13.5982 0 17.5C0 21.4018 1.2693 25.1082 3.61095 28.1494H9.51091V22.2494C8.68089 20.8585 8.20312 19.2341 8.20312 17.5Z" fill="#FBBD00"/>
<path id="Vector_2" d="M17.5 26.7969L13.3984 30.8985L17.5 35C21.4019 35 25.1082 33.7307 28.1494 31.3891V25.4954H22.2557C20.8526 26.3284 19.2214 26.7969 17.5 26.7969Z" fill="#0F9D58"/>
<path id="Vector_3" d="M9.51092 22.2494L3.61096 28.1494C4.07458 28.7515 4.57941 29.3281 5.12567 29.8744C8.43098 33.1796 12.8256 35 17.5 35V26.7969C14.1077 26.7969 11.1346 24.9703 9.51092 22.2494Z" fill="#31AA52"/>
<path id="Vector_4" d="M35 17.5C35 16.4353 34.9036 15.3686 34.7134 14.3297L34.5596 13.489H17.5V21.6921H25.8024C24.9962 23.2959 23.7565 24.6043 22.2556 25.4955L28.1493 31.3891C28.7514 30.9255 29.328 30.4207 29.8743 29.8744C33.1797 26.569 35 22.1744 35 17.5Z" fill="#3C79E6"/>
<path id="Vector_5" d="M24.0739 10.9261L24.7989 11.6511L30.5994 5.85067L29.8744 5.12565C26.5691 1.82034 22.1745 0 17.5 0L13.3984 4.10156L17.5 8.20312C19.9832 8.20312 22.3179 9.17014 24.0739 10.9261Z" fill="#CF2D48"/>
<path id="Vector_6" d="M17.5 8.20312V0C12.8256 0 8.43099 1.82034 5.12561 5.12559C4.57935 5.67185 4.07451 6.24846 3.6109 6.85063L9.51086 12.7506C11.1346 10.0297 14.1078 8.20312 17.5 8.20312Z" fill="#EB4132"/>
</g>
</svg>
