<svg width="30" height="30" viewBox="0 0 30 30" fill="none" xmlns="http://www.w3.org/2000/svg">
<g id="icofacebook-1924510 1" clip-path="url(#clip0_12_9)">
<g id="Group">
<path id="Vector" d="M15.4854 11.8061H17.9296V10.4922C17.9296 9.02441 18.0786 7.92914 18.3765 7.20642C18.6744 6.48301 19.2229 5.89412 20.022 5.43975C20.821 4.98537 21.8318 4.75816 23.0542 4.75812C24.3074 4.75812 25.5348 4.95507 26.7365 5.34899L26.141 8.5697C25.441 8.39412 24.7671 8.30632 24.1192 8.30632C23.482 8.30632 23.025 8.46251 22.7484 8.77488C22.4718 9.08725 22.3335 9.687 22.3335 10.5741V11.8062H25.6236V15.4373H22.3335V29.2555H17.9295V15.4373H15.4853V11.8062L15.4854 11.8061Z" fill="white"/>
</g>
</g>
<defs>
<clipPath id="clip0_12_9">
<rect width="30" height="30" fill="white"/>
</clipPath>
</defs>
</svg>
