<svg width="32" height="32" viewBox="0 0 32 32" fill="none" xmlns="http://www.w3.org/2000/svg">
<g id="lock-152879 1" clip-path="url(#clip0_22_9)">
<g id="Group">
<path id="Vector" opacity="0.98" d="M16.0137 0.0105591C15.8714 0.01159 15.7291 0.0127253 15.5867 0.0169523C9.04974 0.0462316 3.18475 4.12565 3.16815 8.72539C3.09418 9.80965 3.18969 10.8947 3.17271 11.9794H0.0232291C0.106645 16.7451 -0.146534 21.522 0.156367 26.2809C0.80805 29.3453 4.72912 32.1165 9.30158 31.9673C14.308 31.9605 19.33 32.076 24.3276 31.8964C29.0191 31.3291 32.3136 27.9485 31.9579 24.6765C32.0118 20.4453 31.9528 16.214 31.9763 11.9833C30.9311 11.9645 29.8857 11.9976 28.8406 11.9736C28.9199 9.3972 29.0926 6.58092 26.9997 4.34765C24.7364 1.69746 20.4229 -0.00868407 16.0135 0.0112135L16.0137 0.0105591ZM16.0733 3.68986C19.7874 3.72556 23.4569 5.88405 23.35 8.59981C23.4237 9.72583 23.4729 10.8525 23.5061 11.9794C18.5095 11.9773 13.5131 11.9849 8.51676 11.9729C8.53229 10.2102 7.8582 8.28279 9.23295 6.69573C10.4812 5.01413 12.9762 3.72728 15.7154 3.69305C15.8352 3.68975 15.9537 3.68862 16.0735 3.68986H16.0733Z" fill="white"/>
<path id="Vector_2" opacity="0.98" d="M15.6901 0.628877C9.20688 0.743396 4.03826 4.44663 4.03826 9.02483V12.5945H0.902588V24.7341H0.907143C0.902589 24.8218 0.902588 24.9097 0.902588 24.9983C0.902588 28.5239 4.58286 31.3613 9.15708 31.3613H22.8336C27.4078 31.3613 31.0928 28.5239 31.0928 24.9983C31.0928 24.9097 31.0881 24.8218 31.0836 24.7341H31.0928V12.5945H27.9617V9.02483C27.9617 4.37405 22.6296 0.628877 16.0023 0.628877C15.8987 0.628877 15.793 0.627021 15.6901 0.628877ZM15.635 3.07741C15.7136 3.07607 15.7946 3.07741 15.8737 3.07741C19.6625 3.0153 23.3866 4.98232 24.1604 7.59426C24.2921 9.26092 24.3663 10.9262 24.4083 12.5944H7.61489C7.61093 11.7968 7.60565 11.001 7.58277 10.2038C6.62375 6.7929 10.6789 3.15907 15.6353 3.07731L15.635 3.07741ZM15.9839 17.0346C16.1627 17.0346 16.3434 17.0444 16.5256 17.0636C18.4693 17.2682 19.8106 18.538 19.5189 19.9019C19.3847 20.53 18.923 21.0704 18.2794 21.4484L19.5235 26.9221H12.4718L13.7114 21.4484C12.7944 20.908 12.2858 20.0528 12.4764 19.1608C12.7406 17.9247 14.2558 17.0378 15.9839 17.0345V17.0346Z" fill="black"/>
</g>
</g>
<defs>
<clipPath id="clip0_22_9">
<rect width="32" height="32" fill="white"/>
</clipPath>
</defs>
</svg>
